<?xml version="1.0" encoding="UTF-8"?> <svg xmlns="http://www.w3.org/2000/svg" id="Layer_2" viewBox="0 0 314.2 78.2"><defs><style>.cls-1{fill:#fff;}.cls-2{fill:#2ac940;}.cls-3{isolation:isolate;}</style></defs><g id="Layer_2-2"><g id="Layer_1-2"><g><path class="cls-2" d="M137.2,15.8H23.3C10.4,15.8,0,26.2,0,39.1s10.4,23.3,23.3,23.3h113.9c12.9,0,23.3-10.4,23.3-23.3s-10.4-23.3-23.3-23.3"></path><path class="cls-1" d="M22.8,42.3h8.6v6c-2.6,2.1-5,2.7-7.6,2.7-8.4,0-11.6-5.7-11.6-11.3,0-6.9,4.4-12.4,11.6-12.4,2.9,0,6.3,1.2,8.6,3.4l4-4c-3.5-3.4-8-5.2-12.5-5.2-11.9,0-17.8,8.8-17.8,18.3,0,8.9,5.2,17.2,17.8,17.2,5.9,0,10.1-2.3,13.5-6.1v-14.3h-14.6v5.7h0Z"></path><path class="cls-1" d="M54.3,21.5l-15.9,35.4h7.2l3-6.7h18.5l3,6.7h7.3l-15.8-35.4h-7.3Zm-3,22.5l6.6-15.1,6.6,15.1h-13.2Z"></path><path class="cls-1" d="M94.9,50.9c-8.4,0-11.6-5.9-11.7-11.5-.1-5.7,3.5-11.8,11.7-11.8,3,0,6,1,8.2,3.2l4.3-4.1c-3.5-3.4-7.8-5.2-12.4-5.2-12.3,0-18,9-18,17.9,.1,8.8,5.4,17.5,18,17.5,4.9,0,9.4-1.6,12.9-5l-4.4-4.4c-2.3,2.2-5.6,3.4-8.6,3.4"></path><path class="cls-1" d="M132.2,21.5h-7.3l-16,35.7h7.3l3.1-6.7h18.7l3,6.7h7.3l-16.1-35.7h0Zm-10.3,22.7l6.6-15.2,6.6,15.2h-13.2Z"></path><path class="cls-2" d="M172.4,0h0c.5,0,.9,.4,.9,.9V77.3c0,.5-.4,.9-.9,.9h0c-.5,0-.9-.4-.9-.9V.9c0-.5,.4-.9,.9-.9Z"></path><g class="cls-3"><path class="cls-2" d="M198.1,20.4c-1.1-1.1-2.8-1.7-4.3-1.7-3.6,0-5.9,2.8-5.9,6.3,0,2.8,1.6,5.7,5.9,5.7,1.3,0,2.5-.3,3.8-1.4v-3h-4.4v-2.9h7.3v7.2c-1.7,1.9-3.8,3.1-6.8,3.1-6.4,0-9-4.2-9-8.7,0-4.8,3-9.2,9-9.2,2.3,0,4.6,.9,6.3,2.6l-1.9,2Z"></path></g><g class="cls-3"><path class="cls-2" d="M218,33.2h-3.8l-5-5.7h-3.1v5.7h-3.1V16.2h8.1c4,0,6.1,2.7,6.1,5.6,0,2.3-1.1,4.7-4.3,5.3l5.1,5.9v.2Zm-11.8-14v5.4h4.9c2,0,2.9-1.4,2.9-2.7s-.9-2.7-2.9-2.7c0,0-4.9,0-4.9,0Z"></path><path class="cls-2" d="M232,33.2h-12.7V16.2h12.7v3.1h-9.6v3.9h9.2v3h-9.2v3.8h9.6v3.2Z"></path></g><g class="cls-3"><path class="cls-2" d="M247.2,33.2h-12.7V16.2h12.7v3.1h-9.6v3.9h9.2v3h-9.2v3.8h9.6v3.2Z"></path></g><g class="cls-3"><path class="cls-2" d="M261.4,16.2h3.2v17h-2l-8.9-11.5v11.5h-3.2V16.2h2.6l8.3,10.5v-10.5h0Z"></path><path class="cls-2" d="M275.6,28.2h-4.8v5h-3.2V16.2h8c8.3,0,8.3,12,0,12Zm-4.8-2.9h4.8c4.1,0,4.1-6,0-6h-4.8v6Z"></path><path class="cls-2" d="M296.7,33.2h-12.7V16.2h12.7v3.1h-9.6v3.9h9.2v3h-9.2v3.8h9.6v3.2Z"></path><path class="cls-2" d="M311.8,20.4c-1.1-1.1-2.8-1.7-4.3-1.7-3.6,0-5.9,2.8-5.9,6.3,0,2.8,1.6,5.7,5.9,5.7,1.3,0,2.5-.3,3.8-1.4v-3h-4.4v-2.9h7.3v7.2c-1.7,1.9-3.8,3.1-6.8,3.1-6.4,0-9-4.2-9-8.7,0-4.8,3-9.2,9-9.2,2.3,0,4.6,.9,6.3,2.6l-1.9,2Z"></path></g><g class="cls-3"><path class="cls-1" d="M195.1,41.4l7.9,17.7h-2.4l-1.8-3.8h-10.1l-1.8,3.8h-2.4l7.9-17.7h2.7Zm-1.3,2.2l-4.2,9.6h8.4l-4.2-9.6Z"></path></g><g class="cls-3"><path class="cls-1" d="M213.3,59.4c-2.9,0-5.2-.8-6.9-2.6-1.6-1.8-2.4-3.8-2.4-6.4,0-1.7,.3-3.1,.9-4.5,.6-1.4,1.7-2.5,3.1-3.4,1.5-.9,3.1-1.4,5.1-1.4,2.5,0,4.7,.9,6.4,2.7l-1.6,1.5c-1.4-1.4-3-2-5-2-2.3,0-3.9,.7-5.2,2.1s-1.9,3-1.8,5c0,2,.6,3.6,1.9,5,1.2,1.4,2.9,2,5.2,2,2,0,3.6-.7,5-2.1l1.6,1.6c-1.5,1.6-3.7,2.5-6.3,2.5Z"></path></g><g class="cls-3"><path class="cls-1" d="M231.5,41.4l7.9,17.7h-2.4l-1.8-3.8h-10.1l-1.8,3.8h-2.3l7.9-17.7h2.6Zm-1.3,2.2l-4.2,9.6h8.4l-4.2-9.6Z"></path><path class="cls-1" d="M242.2,41.4h6.4c1.5,0,2.7,.2,3.9,.7,1.1,.5,2.1,1.1,2.8,2,.7,.8,1.2,1.8,1.7,2.8s.5,2.1,.5,3.2-.2,2.3-.5,3.3-.8,2-1.6,2.9c-.7,.8-1.7,1.6-2.8,2.1s-2.5,.7-3.9,.7h-6.5v-17.7h0Zm11.4,13.4c1.1-1.4,1.7-3,1.7-4.9,0-1.8-.6-3.3-1.8-4.6s-2.8-1.9-5-1.9h-4.3v13.4h4.3c2.3,.1,4-.5,5.1-2Z"></path><path class="cls-1" d="M261.1,41.4h12.5v2h-10.3v5.5h9.9v2.1h-9.9v6h10.7v2.1h-12.8v-17.7h-.1Z"></path><path class="cls-1" d="M286.7,53.6h-.4l-6.4-9v14.6h-2.2v-17.8h2.6l6.2,9.1,6.1-9.1h2.6v17.7h-2.2v-14.6l-6.3,9.1Z"></path><path class="cls-1" d="M298.1,41.5h0l2.7-.1,5.3,8.4,5.4-8.4h2.7v.1l-7,10.4v7.2h-2.2v-7.2l-6.9-10.4Z"></path></g></g></g></g></svg> 